<?xml version="1.0" standalone="no"?>
<!DOCTYPE svg PUBLIC "-//W3C//DTD SVG 20010904//EN"
 "http://www.w3.org/TR/2001/REC-SVG-20010904/DTD/svg10.dtd">
<svg version="1.0" xmlns="http://www.w3.org/2000/svg"
 width="260.000000pt" height="260.000000pt" viewBox="0 0 260.000000 260.000000"
 preserveAspectRatio="xMidYMid meet">
<metadata>
Created by potrace 1.14, written by Peter Selinger 2001-2017
</metadata>
<g transform="translate(0.000000,260.000000) scale(0.100000,-0.100000)"
fill="#000000" stroke="none">
<path d="M1055 2580 c-473 -95 -856 -435 -998 -886 -79 -252 -76 -558 7 -807
132 -392 452 -707 842 -830 252 -79 558 -76 807 7 392 132 707 452 830 842 79
252 76 558 -7 807 -132 392 -452 707 -842 830 -187 59 -454 74 -639 37z m488
-111 c438 -87 803 -433 913 -866 72 -285 43 -570 -85 -828 -68 -135 -133 -226
-235 -328 -298 -295 -724 -408 -1143 -302 -119 30 -309 122 -407 197 -394 299
-563 783 -441 1265 30 119 122 309 197 407 286 377 735 547 1201 455z"/>
<path d="M1788 1891 c-74 -24 -120 -53 -163 -104 -61 -71 -80 -173 -49 -264
20 -60 54 -110 163 -241 125 -151 152 -197 158 -275 7 -80 -18 -141 -73 -183
-33 -26 -45 -29 -110 -29 -67 0 -75 2 -104 30 -58 56 -64 145 -13 205 32 38
73 60 113 60 41 0 40 32 -3 75 -85 85 -245 37 -307 -91 -27 -54 -32 -158 -11
-218 19 -56 92 -130 154 -156 72 -32 220 -39 302 -15 134 39 218 102 267 203
30 60 33 75 33 152 -1 122 -38 194 -184 360 -134 151 -165 207 -159 284 11
130 148 193 223 104 23 -28 26 -39 23 -80 -3 -29 -16 -64 -32 -89 l-28 -42 21
-21 c30 -29 119 -30 151 -1 74 66 64 218 -20 288 -53 45 -98 59 -200 63 -74 3
-107 0 -152 -15z"/>
<path d="M1137 1886 c-128 -46 -314 -221 -432 -409 -30 -47 -30 -47 -75 -41
-98 12 -253 -33 -313 -91 -89 -87 -59 -205 53 -205 40 0 78 19 86 42 3 10 3
36 -1 58 -6 37 -4 41 26 59 30 19 115 39 123 30 2 -2 -26 -65 -63 -140 -139
-284 -189 -520 -128 -612 20 -31 68 -53 132 -61 l51 -6 -4 94 c-3 71 1 119 18
198 24 115 91 322 143 443 29 70 37 80 61 83 26 3 147 -29 173 -45 8 -6 -5
-83 -48 -283 -32 -151 -59 -281 -59 -287 0 -10 30 -13 118 -13 l117 0 123 578
c67 317 122 584 122 593 0 30 -151 40 -223 15z m-37 -123 c0 -10 -83 -397 -85
-401 -2 -2 -31 6 -66 17 -35 10 -76 22 -92 25 -27 6 -27 6 -11 39 79 156 254
376 254 320z"/>
</g>
</svg>
